<svg xmlns="http://www.w3.org/2000/svg" style="display: none;">
  
  <symbol id="rock" class="icons" viewBox="0 0 24 24">
  	<path stroke="none" d="M0 0h24v24H0z" fill="none"/>
  	<path d="M4 13a8 8 0 0 1 7 7a6 6 0 0 0 3 -5a9 9 0 0 0 6 -8a3 3 0 0 0 -3 -3a9 9 0 0 0 -8 6a6 6 0 0 0 -5 3" />
  	<path d="M7 14a6 6 0 0 0 -3 6a6 6 0 0 0 6 -3" />
  	<circle cx="15" cy="9" r="1" />
  </symbol>
  
  <symbol id="paper" class="icons" viewBox="0 0 24 24">
 	<path stroke="none" d="M0 0h24v24H0z" fill="none"/>
 	<path d="M14 3v4a1 1 0 0 0 1 1h4" />
  	<path d="M17 21h-10a2 2 0 0 1 -2 -2v-14a2 2 0 0 1 2 -2h7l5 5v11a2 2 0 0 1 -2 2z" />
  </symbol>
  
  <symbol id="scissors" class="icons" viewBox="0 0 24 24">
    <path stroke="none" d="M0 0h24v24H0z" fill="none"/>
    <circle cx="7" cy="17" r="3" />
    <circle cx="17" cy="17" r="3" />
    <line x1="9.15" y1="14.85" x2="18" y2="4" />
    <line x1="6" y1="4" x2="14.85" y2="14.85" />
  </symbol>

</svg>
